<?xml version="1.0" encoding="utf-8" ?>
<svg xmlns="http://www.w3.org/2000/svg" xmlns:xlink="http://www.w3.org/1999/xlink" width="2048" height="2048">
	<defs>
		<linearGradient id="gradient_0" gradientUnits="userSpaceOnUse" x1="811.5166" y1="693.03448" x2="221.56769" y2="61.559299">
			<stop offset="0" stop-color="#F7564D"/>
			<stop offset="1" stop-color="#FFBDB6"/>
		</linearGradient>
	</defs>
	<path fill="url(#gradient_0)" transform="scale(2 2)" d="M275.234 82.8991C290.156 80.8613 305.783 81.3454 320.755 82.632C375.207 87.311 420.141 105.504 463.546 138.527C476.705 148.539 488.937 159.284 499.809 171.773C503.832 176.394 507.163 181.737 511.317 186.201C518.196 178.489 524.256 170.114 531.625 162.838Q533.751 160.696 535.926 158.603Q538.1 156.51 540.321 154.467Q542.542 152.424 544.809 150.431Q547.076 148.439 549.387 146.498Q551.698 144.558 554.053 142.67Q556.408 140.782 558.805 138.948Q561.202 137.114 563.639 135.335Q566.077 133.556 568.555 131.832Q571.032 130.109 573.548 128.442Q576.064 126.775 578.617 125.165Q581.17 123.556 583.759 122.005Q586.347 120.453 588.971 118.961Q591.594 117.469 594.25 116.036Q596.907 114.604 599.595 113.232Q602.283 111.86 605.001 110.549Q607.72 109.238 610.468 107.989Q613.215 106.741 615.99 105.554Q618.765 104.368 621.566 103.245Q624.368 102.122 627.194 101.062Q630.019 100.003 632.869 99.0078Q635.718 98.0127 638.589 97.0823Q641.46 96.152 644.351 95.2869Q647.243 94.4218 650.153 93.6224Q653.063 92.8231 655.991 92.0898Q658.918 91.3565 661.862 90.6898Q664.805 90.023 667.763 89.4231Q670.721 88.8231 673.691 88.2903Q676.662 87.7575 679.644 87.2921Q682.626 86.8268 685.617 86.429Q688.609 86.0313 691.609 85.7014Q694.609 85.3716 697.615 85.1097Q700.622 84.8479 703.634 84.6542C732.787 82.9882 760.603 85.6403 788.813 93.0904C796.1 95.0151 803.838 97.0302 810.697 100.168C819.723 102.214 828.466 106.823 836.806 110.74C883.369 132.608 920.255 167.861 947.558 211.226C983.152 267.761 999.293 346.316 984.301 411.894C977.601 441.206 966.635 468.606 952.726 495.223C937.275 524.791 918.549 552.383 899.051 579.389Q879.331 606.634 858.059 632.685Q836.788 658.737 814.038 683.508Q791.613 708.402 768.092 732.263Q744.571 756.124 720.002 778.904Q695.433 801.685 669.864 823.338Q644.296 844.991 617.781 865.473C592.886 884.775 567.858 903.58 541.122 920.29C530.076 927.194 519.608 933.313 506.15 930.254C490.693 926.741 475.834 915.177 462.774 906.494C444.644 894.44 427.326 881.417 410.01 868.236Q387.635 851.182 365.939 833.274Q344.243 815.365 323.258 796.628Q302.273 777.891 282.031 758.354Q261.789 738.817 242.32 718.509L224.453 700.076C221.814 697.316 218.406 694.225 216.263 691.096C216.129 690.9 216.027 690.685 215.908 690.479C209.439 684.908 201.914 674.996 195.903 668.366Q170.559 640.343 147.214 610.634Q123.87 580.925 102.635 549.673C77.4445 511.899 52.908 466.535 41.6342 422.254Q40.793 418.813 40.0452 415.351Q39.2974 411.889 38.6434 408.408Q37.9894 404.927 37.4298 401.43Q36.8701 397.932 36.4052 394.421Q35.9403 390.91 35.5705 387.387Q35.2007 383.864 34.9263 380.333Q34.6518 376.802 34.4729 373.264Q34.294 369.727 34.2108 366.186Q34.1276 362.645 34.1402 359.103Q34.1527 355.561 34.261 352.021Q34.3693 348.48 34.5732 344.944Q34.7772 341.408 35.0767 337.879Q35.3761 334.35 35.7709 330.83Q36.1656 327.31 36.6554 323.802Q37.1452 320.294 37.7296 316.801Q38.314 313.307 38.9926 309.831C39.6604 299.839 43.0214 289.548 45.9949 280.007C58.1485 241.008 77.3062 204.694 104.65 174.169C117.552 159.766 131.216 144.939 146.395 132.917C161.469 120.979 177.836 112.338 195.171 104.211C202.924 100.575 210.701 96.9191 218.814 94.1483C236.179 88.218 256.911 83.9073 275.234 82.8991ZM469.706 487.384C457.399 499.381 453.758 501.496 446.786 518.019C444.77 522.796 442.832 528.85 439.792 533.017C434.266 545.159 424.487 556.903 414.409 565.555C408.07 570.997 401.072 575.578 394.55 580.781C380.695 591.834 369.098 606.332 364.551 623.712Q364.076 625.503 363.691 627.316Q363.306 629.129 363.011 630.958Q362.717 632.788 362.513 634.63Q362.31 636.472 362.199 638.322Q362.088 640.172 362.068 642.025Q362.049 643.878 362.122 645.729Q362.195 647.581 362.36 649.427Q362.526 651.273 362.782 653.108Q363.039 654.943 363.386 656.764Q363.734 658.584 364.172 660.385Q364.609 662.185 365.136 663.962Q365.663 665.739 366.277 667.487Q366.892 669.235 367.593 670.951Q368.293 672.666 369.078 674.345Q369.864 676.024 370.731 677.661Q371.599 679.299 372.547 680.891C389.233 708.989 420.775 723.811 452.899 715.616C459.286 713.987 465.323 711.394 471.453 709.017C483.105 704.501 494.366 701.675 506.922 701.254C519.785 700.824 533.137 702.117 545.206 706.798C552.849 709.762 560.271 713.252 568.257 715.236C587.64 720.053 609.341 717.221 626.461 706.761C642.666 696.86 655.529 679.065 659.915 660.59Q660.235 659.263 660.51 657.925Q660.785 656.588 661.015 655.241Q661.244 653.895 661.427 652.542Q661.611 651.189 661.748 649.83Q661.885 648.472 661.976 647.109Q662.067 645.747 662.112 644.382Q662.157 643.017 662.155 641.652Q662.153 640.286 662.105 638.922Q662.056 637.557 661.962 636.195Q661.867 634.833 661.726 633.474Q661.585 632.116 661.398 630.763Q661.211 629.411 660.978 628.065Q660.745 626.72 660.467 625.383Q660.188 624.046 659.865 622.72Q659.541 621.393 659.172 620.078Q658.803 618.763 658.39 617.462Q657.977 616.161 657.52 614.874Q657.062 613.587 656.561 612.317Q656.061 611.046 655.517 609.794Q654.973 608.541 654.387 607.308Q653.802 606.074 653.174 604.862Q652.546 603.649 651.878 602.458Q651.209 601.267 650.501 600.1Q649.792 598.933 649.045 597.79Q648.297 596.648 647.51 595.531Q646.724 594.415 645.901 593.326Q645.077 592.237 644.216 591.176Q643.356 590.116 642.46 589.085Q641.564 588.055 640.634 587.055Q639.703 586.056 638.74 585.089Q637.776 584.121 636.78 583.187Q635.783 582.254 634.756 581.354C629.56 576.89 623.663 573.187 618.133 569.147Q612.922 565.32 608.152 560.954Q603.383 556.588 599.111 551.735C588.424 539.653 584.181 524.235 575.801 510.777C565.466 494.18 547.311 481.061 528.265 476.668C507.138 471.796 487.849 475.933 469.706 487.384ZM302.298 397.621C292 400.585 284.002 409.408 278.988 418.539C267.631 439.225 268.48 468.45 275.077 490.498C282.416 515.032 299.687 540.777 322.638 553.156C333.195 558.85 346.364 561.423 358.044 557.846C369.01 554.487 377.827 545.808 383.027 535.79C394.622 513.446 393.379 484.091 385.901 460.65C380.216 442.831 364.537 417.334 348.284 407.738C345.507 405.523 342.133 403.638 338.976 402.021C327.703 396.246 314.613 393.669 302.298 397.621ZM685.455 401.249C666.824 408.515 647.146 435.819 639.416 453.435C630.903 472.836 624.811 501.39 632.494 521.973C632.547 522.114 632.609 522.252 632.667 522.391C636.469 535.153 643.838 547.384 655.837 553.906Q657.247 554.661 658.714 555.298Q660.181 555.935 661.695 556.45Q663.209 556.964 664.761 557.352Q666.312 557.741 667.89 558Q669.468 558.26 671.062 558.389Q672.657 558.518 674.256 558.516Q675.855 558.513 677.449 558.38Q679.043 558.246 680.62 557.982C690.73 557.407 702.435 550.28 710.128 544.149C729.456 528.749 747.453 498.496 750.307 473.66C752.592 462.094 752.354 450.551 750.813 438.916C750.308 430.998 745.58 417.898 740.348 411.832C740.291 411.828 740.234 411.828 740.177 411.82C739.603 411.74 739.034 411.622 738.458 411.566C738.12 411.533 737.78 411.527 737.441 411.508C733.004 408.363 726.361 406.132 723.459 401.482C723.334 401.282 723.219 401.076 723.1 400.873C721.282 400.4 719.135 401.256 717.262 401.506C711.739 402.246 705.59 401.725 700.133 400.695C697.844 400.263 694.714 399.245 692.468 399.37C690.316 399.49 688.456 401.171 686.242 401.248C685.98 401.257 685.717 401.249 685.455 401.249ZM533.968 356.315C532.927 363.108 533.64 371.31 534.641 378.121C535.874 384.67 536.786 392.156 539.725 398.189C542.019 404.752 545.729 410.04 549.358 415.909C554.029 421.099 558.54 426.944 564.837 430.243C565.333 430.648 565.113 430.501 565.786 430.874Q566.611 431.328 567.458 431.74Q568.305 432.153 569.172 432.523Q570.038 432.892 570.922 433.218Q571.806 433.544 572.705 433.826Q573.604 434.108 574.516 434.344Q575.428 434.581 576.35 434.772Q577.273 434.963 578.203 435.107Q579.134 435.252 580.071 435.35Q581.008 435.448 581.949 435.499Q582.889 435.551 583.832 435.555Q584.774 435.56 585.715 435.517Q586.656 435.474 587.594 435.385Q588.531 435.296 589.464 435.16Q590.396 435.024 591.32 434.842Q592.244 434.659 593.158 434.431Q594.072 434.203 594.974 433.93C611.742 428.813 624.57 414.035 632.495 398.996C647.856 369.849 649.575 336.193 639.803 305.068C633.179 290.996 625.282 276.015 609.702 270.488C599.487 266.865 588.633 268.435 579.031 273.144C560.573 282.195 546.438 303.562 540.062 322.539C536.556 332.976 533.715 345.237 533.968 356.315ZM424.13 269.149C411.736 271.016 401.66 279.192 394.348 289.041C378.442 310.467 375.829 340.093 379.763 365.674C383.241 388.287 393.599 412.548 412.61 426.396C421.787 433.081 432.694 436.314 444.01 434.527L444.499 434.445C457.84 431.76 467.357 424.258 474.855 413.057C490.424 389.798 492.466 360.927 487.049 334.022C482.86 313.214 470.659 288.24 452.554 276.158C443.784 270.306 434.518 268.441 424.13 269.149ZM685.455 401.249C685.717 401.249 685.98 401.257 686.242 401.248C688.456 401.171 690.316 399.49 692.468 399.37C694.714 399.245 697.844 400.263 700.133 400.695C705.59 401.725 711.739 402.246 717.262 401.506C719.135 401.256 721.282 400.4 723.1 400.873C723.219 401.076 723.334 401.282 723.459 401.482C726.361 406.132 733.004 408.363 737.441 411.508C737.78 411.527 738.12 411.533 738.458 411.566C739.034 411.622 739.603 411.74 740.177 411.82C740.234 411.828 740.291 411.828 740.348 411.832C735.824 404.925 728.661 399.54 720.859 396.905C708.349 392.679 696.904 395.606 685.455 401.249Z"/>
	<path fill="#FEFEFE" fill-opacity="0.019607844" transform="scale(2 2)" d="M424.13 269.149C434.518 268.441 443.784 270.306 452.554 276.158C470.659 288.24 482.86 313.214 487.049 334.022C492.466 360.927 490.424 389.798 474.855 413.057C467.357 424.258 457.84 431.76 444.499 434.445L444.01 434.527C432.694 436.314 421.787 433.081 412.61 426.396C393.599 412.548 383.241 388.287 379.763 365.674C375.829 340.093 378.442 310.467 394.348 289.041C401.66 279.192 411.736 271.016 424.13 269.149Z"/>
	<defs>
		<linearGradient id="gradient_1" gradientUnits="userSpaceOnUse" x1="533.30847" y1="377.98495" x2="647.21582" y2="324.93518">
			<stop offset="0" stop-color="#FFFFFE" stop-opacity="0.13725491"/>
			<stop offset="1" stop-color="#FFFFFE" stop-opacity="0.40392157"/>
		</linearGradient>
	</defs>
	<path fill="url(#gradient_1)" transform="scale(2 2)" d="M533.968 356.315C533.715 345.237 536.556 332.976 540.062 322.539C546.438 303.562 560.573 282.195 579.031 273.144C588.633 268.435 599.487 266.865 609.702 270.488C625.282 276.015 633.179 290.996 639.803 305.068C649.575 336.193 647.856 369.849 632.495 398.996C624.57 414.035 611.742 428.813 594.974 433.93Q594.072 434.203 593.158 434.431Q592.244 434.659 591.32 434.842Q590.396 435.024 589.464 435.16Q588.531 435.296 587.594 435.385Q586.656 435.474 585.715 435.517Q584.774 435.56 583.832 435.555Q582.889 435.551 581.949 435.499Q581.008 435.448 580.071 435.35Q579.134 435.252 578.203 435.107Q577.273 434.963 576.35 434.772Q575.428 434.581 574.516 434.344Q573.604 434.108 572.705 433.826Q571.806 433.544 570.922 433.218Q570.038 432.892 569.172 432.523Q568.305 432.153 567.458 431.74Q566.611 431.328 565.786 430.874C565.113 430.501 565.333 430.648 564.837 430.243C558.54 426.944 554.029 421.099 549.358 415.909C545.729 410.04 542.019 404.752 539.725 398.189C536.786 392.156 535.874 384.67 534.641 378.121C533.64 371.31 532.927 363.108 533.968 356.315ZM539.725 398.189C542.019 404.752 545.729 410.04 549.358 415.909C554.029 421.099 558.54 426.944 564.837 430.243C564.509 429.533 564.164 428.925 563.729 428.271C559.264 421.563 554.918 413.991 548.416 409.024C548.241 407.813 548.148 406.279 547.703 405.144C546.626 402.396 542.48 399.194 539.725 398.189ZM533.968 356.315C532.927 363.108 533.64 371.31 534.641 378.121C535.397 379.123 536.191 379.916 537.098 380.776L537.705 380.677C537.843 379.853 537.978 379.107 538.261 378.318C538.57 377.457 538.896 376.63 539.022 375.717C539.285 373.814 539.118 371.327 537.913 369.77L537.405 370.146C536.998 372.795 536.245 376.305 537.002 378.895C534.749 369.511 536.937 360.469 536.241 351.141C534.482 352.988 534.494 358.274 534.287 360.774C534.075 359.322 534.061 357.783 533.968 356.315Z"/>
	<path fill="#FEFEFE" fill-opacity="0.32549021" transform="scale(2 2)" d="M533.968 356.315C534.061 357.783 534.075 359.322 534.287 360.774C534.494 358.274 534.482 352.988 536.241 351.141C536.937 360.469 534.749 369.511 537.002 378.895C536.245 376.305 536.998 372.795 537.405 370.146L537.913 369.77C539.118 371.327 539.285 373.814 539.022 375.717C538.896 376.63 538.57 377.457 538.261 378.318C537.978 379.107 537.843 379.853 537.705 380.677L537.098 380.776C536.191 379.916 535.397 379.123 534.641 378.121C533.64 371.31 532.927 363.108 533.968 356.315Z"/>
	<defs>
		<linearGradient id="gradient_2" gradientUnits="userSpaceOnUse" x1="630.17212" y1="481.11765" x2="750.41302" y2="475.07663">
			<stop offset="0" stop-color="white" stop-opacity="0.031372551"/>
			<stop offset="1" stop-color="#FFFFFD" stop-opacity="0.42745098"/>
		</linearGradient>
	</defs>
	<path fill="url(#gradient_2)" transform="scale(2 2)" d="M685.455 401.249C685.717 401.249 685.98 401.257 686.242 401.248C688.456 401.171 690.316 399.49 692.468 399.37C694.714 399.245 697.844 400.263 700.133 400.695C705.59 401.725 711.739 402.246 717.262 401.506C719.135 401.256 721.282 400.4 723.1 400.873C723.219 401.076 723.334 401.282 723.459 401.482C726.361 406.132 733.004 408.363 737.441 411.508C737.78 411.527 738.12 411.533 738.458 411.566C739.034 411.622 739.603 411.74 740.177 411.82C740.234 411.828 740.291 411.828 740.348 411.832C745.58 417.898 750.308 430.998 750.813 438.916C752.354 450.551 752.592 462.094 750.307 473.66C747.453 498.496 729.456 528.749 710.128 544.149C702.435 550.28 690.73 557.407 680.62 557.982Q679.043 558.246 677.449 558.38Q675.855 558.513 674.256 558.516Q672.657 558.518 671.063 558.389Q669.468 558.26 667.89 558Q666.312 557.741 664.761 557.352Q663.209 556.964 661.695 556.45Q660.181 555.935 658.714 555.298Q657.247 554.661 655.837 553.906C643.838 547.384 636.469 535.153 632.667 522.391C632.609 522.252 632.547 522.114 632.494 521.973C624.811 501.39 630.903 472.836 639.416 453.435C647.146 435.819 666.824 408.515 685.455 401.249ZM632.667 522.391C636.469 535.153 643.838 547.384 655.837 553.906Q657.247 554.661 658.714 555.298Q660.181 555.935 661.695 556.45Q663.209 556.964 664.761 557.352Q666.312 557.741 667.89 558Q669.468 558.26 671.062 558.389Q672.657 558.518 674.256 558.516Q675.855 558.513 677.449 558.38Q679.043 558.246 680.62 557.982C678.301 557.193 677.824 556.583 676.076 554.953C673.059 552.14 668.607 553.244 664.911 553.01C653.489 552.286 650.581 545.7 644.351 537.678C643.239 536.246 641.5 535.599 640.444 534.249C639.126 532.565 639.359 530.482 637.743 528.687C635.454 526.142 635.52 523.855 634.284 520.84C634.111 521.66 633.923 522.473 633.73 523.289C633.62 522.25 633.748 522.747 633.352 521.797L632.667 522.391ZM750.813 438.916C750.283 440.66 749.734 442.315 749.058 444.005C745.034 454.053 748.642 463.719 750.307 473.66C752.592 462.094 752.354 450.551 750.813 438.916Z"/>
	<defs>
		<linearGradient id="gradient_3" gradientUnits="userSpaceOnUse" x1="649.01624" y1="548.01617" x2="659.45148" y2="537.53253">
			<stop offset="0" stop-color="#DB2C2C" stop-opacity="0"/>
			<stop offset="1" stop-color="white" stop-opacity="0.074509807"/>
		</linearGradient>
	</defs>
	<path fill="url(#gradient_3)" transform="scale(2 2)" d="M632.667 522.391L633.352 521.797C633.748 522.747 633.62 522.25 633.73 523.289C633.923 522.473 634.111 521.66 634.284 520.84C635.52 523.855 635.454 526.142 637.743 528.687C639.359 530.482 639.126 532.565 640.444 534.249C641.5 535.599 643.239 536.246 644.351 537.678C650.581 545.7 653.489 552.286 664.911 553.01C668.607 553.244 673.059 552.14 676.076 554.953C677.824 556.583 678.301 557.193 680.62 557.982Q679.043 558.246 677.449 558.38Q675.855 558.513 674.256 558.516Q672.657 558.518 671.063 558.389Q669.468 558.26 667.89 558Q666.312 557.741 664.761 557.352Q663.209 556.964 661.695 556.45Q660.181 555.935 658.714 555.298Q657.247 554.661 655.837 553.906C643.838 547.384 636.469 535.153 632.667 522.391Z"/>
	<defs>
		<linearGradient id="gradient_4" gradientUnits="userSpaceOnUse" x1="389.0379" y1="474.05923" x2="273.06482" y2="482.36075">
			<stop offset="0" stop-color="#DB2C2C" stop-opacity="0"/>
			<stop offset="1" stop-color="#FFFFFE" stop-opacity="0.1882353"/>
		</linearGradient>
	</defs>
	<path fill="url(#gradient_4)" transform="scale(2 2)" d="M302.298 397.621C314.613 393.669 327.703 396.246 338.976 402.021C342.133 403.638 345.507 405.523 348.284 407.738C364.537 417.334 380.216 442.831 385.901 460.65C393.379 484.091 394.622 513.446 383.027 535.79C377.827 545.808 369.01 554.487 358.044 557.846C346.364 561.423 333.195 558.85 322.638 553.156C299.687 540.777 282.416 515.032 275.077 490.498C268.48 468.45 267.631 439.225 278.988 418.539C284.002 409.408 292 400.585 302.298 397.621ZM302.298 397.621C303.394 397.723 304.385 397.802 305.486 397.786C308.666 397.739 311.823 399.806 315.093 399.958C319.032 400.142 324.786 396.225 328.278 399.113C329.241 399.909 330.038 401.529 330.767 402.586C333.845 407.044 337.917 408.288 342.897 409.686C339.471 407.803 331.976 404.698 330.525 400.924C330.405 400.613 330.351 400.281 330.264 399.959C331.839 399.616 333.362 400.491 334.87 401.022C339.227 402.557 343.61 405.754 347.638 408.061L348.284 407.738C345.507 405.523 342.133 403.638 338.976 402.021C327.703 396.246 314.613 393.669 302.298 397.621Z"/>
</svg>
